General
Complete name : E:\Record\NBA Playoffs 07.05.2011 West Round 2 Game 3 Thunder@Grizzlies HD by peacemaker.mkv
Format : Matroska
File size : 4.37 GiB
Duration : 2h 6mn
Overall bit rate : 4 952 Kbps
Encoded date : UTC 2011-05-08 03:43:18
Writing application : mkvmerge v3.2.0 ('Beginnings') built on Feb 12 2010 16:46:17
Writing library : libebml v0.7.9 + libmatroska v0.8.1
Video
ID : 1
Format : AVC
Format/Info : Advanced Video Codec
Format profile : Main@L4.0
Format settings, CABAC : Yes
Format settings, ReFrames : 4 frames
Format settings, GOP : M=4, N=32
Muxing mode : Container profile=Unknown@4.0
Codec ID : V_MPEG4/ISO/AVC
Duration : 2h 6mn
Bit rate : 4 405 Kbps
Width : 1 280 pixels
Height : 720 pixels
Display aspect ratio : 16:9
Frame rate : 60.000 fps
Color space : YUV
Chroma subsampling : 4:2:0
Bit depth : 8 bits
Scan type : Progressive
Bits/(Pixel*Frame) : 0.080
Stream size : 3.89 GiB (89%)
Color primaries : BT.709-5, BT.1361, IEC 61966-2-4, SMPTE RP177
Transfer characteristics : BT.709-5, BT.1361
Matrix coefficients : BT.709-5, BT.1361, IEC 61966-2-4 709, SMPTE RP177
Audio
ID : 2
Format : AC-3
Format/Info : Audio Coding 3
Mode extension : CM (complete main)
Codec ID : A_AC3
Duration : 2h 6mn
Bit rate mode : Constant
Bit rate : 448 Kbps
Channel(s) : 6 channels
Channel positions : Front: L C R, Side: L R, LFE
Sampling rate : 48.0 KHz
Stream size : 405 MiB (9%)